<?xml version="1.0" encoding="iso-8859-1"?>
<!-- Generator: Adobe Illustrator 16.0.0, SVG Export Plug-In . SVG Version: 6.00 Build 0)  -->
<!DOCTYPE svg PUBLIC "-//W3C//DTD SVG 1.1//EN" "http://www.w3.org/Graphics/SVG/1.1/DTD/svg11.dtd">
<svg version="1.1" id="Capa_1" xmlns="http://www.w3.org/2000/svg" xmlns:xlink="http://www.w3.org/1999/xlink" x="0px" y="0px"
	 width="26.474px" height="26.474px" viewBox="0 0 26.474 26.474" style="enable-background:new 0 0 26.474 26.474;"
	 xml:space="preserve">
<g>
	<path d="M26.36,23.982l-0.813-4.572c-0.217-1.225-1.381-2.428-2.598-2.684l-4.803-1.014c-0.218-0.256-0.442-0.461-0.684-0.623
		c-0.023-0.236-0.005-0.412,0.062-0.557c0.243-0.536,0.431-1.033,0.568-1.521c0.32-0.138,0.497-0.403,0.565-0.511
		c0.114-0.17,0.208-0.354,0.288-0.543c0.216-0.51,0.313-1.012,0.418-1.543c0.04-0.205,0.104-0.405,0.178-0.633l0.112-0.369
		c0.125-0.436,0.055-0.875-0.195-1.209c-0.05-0.064-0.104-0.125-0.165-0.18c0.271-1.414,0.123-2.768-0.438-4.023
		c-0.729-1.629-1.896-2.678-3.468-3.114c-0.576-0.162-1.173-0.281-1.776-0.354l-0.002-0.217l-0.188-0.009
		c-0.346-0.019-0.691-0.024-1.039-0.024l-0.381,0.002c-0.22,0.004-0.447,0.027-0.677,0.069L11.086,0l-0.929,0.603
		C9.976,0.717,9.795,0.832,9.624,0.957C9.385,1.133,9.194,1.342,9.054,1.58c-0.483,0.125-0.929,0.367-1.36,0.74
		c-0.06,0.053-0.115,0.109-0.188,0.196l-0.52,0.638l0.185,0.185c-0.18,0.409-0.229,0.8-0.143,1.067
		c-0.25,1.15-0.211,2.325,0.125,3.688C6.959,8.282,6.839,8.533,6.798,8.842c-0.06,0.432-0.095,1,0.173,1.566
		c0.123,0.26,0.202,0.532,0.301,0.871l0.056,0.19c0.069,0.231,0.159,0.457,0.259,0.678c0.083,0.183,0.195,0.356,0.333,0.521
		c0.116,0.135,0.245,0.242,0.383,0.32c0.144,0.52,0.346,1.012,0.603,1.467c-0.005,0.244-0.015,0.484-0.024,0.729l-0.006,0.154
		c-0.173,0.111-0.323,0.238-0.458,0.355l-4.893,1.031c-1.216,0.256-2.382,1.458-2.598,2.684L0.113,23.98
		c-0.117,0.654,0.039,1.277,0.438,1.756c0.399,0.477,0.985,0.737,1.649,0.737h22.072c0.664,0,1.25-0.264,1.648-0.737
		C26.32,25.26,26.478,24.637,26.36,23.982z M8.841,16.703l0.193-0.047L9.017,16.57c0.173-0.149,0.373-0.272,0.551-0.375
		c0.029-0.019,0.055-0.037,0.111-0.082c0.165-0.086,0.251-0.215,0.261-0.485l0.012-0.281c0.013-0.31,0.025-0.616,0.031-0.924
		c0.002-0.122-0.032-0.259-0.094-0.373c-0.327-0.604-0.542-1.197-0.685-1.898l-0.193,0.059l0.186-0.073l-0.141-0.201l-0.203,0.125
		c-0.012,0-0.046-0.009-0.112-0.087c-0.073-0.085-0.133-0.178-0.174-0.27c-0.08-0.176-0.153-0.354-0.207-0.539L8.306,10.98
		c-0.099-0.34-0.202-0.691-0.361-1.029C7.799,9.644,7.822,9.293,7.864,8.99c0.017-0.121,0.025-0.182,0.352-0.209L8.463,8.76
		L8.391,8.524c-0.52-1.706-0.582-3.038-0.199-4.317L8.065,4.16C8.062,3.92,8.233,3.514,8.606,3.131L8.533,3.027
		c0.34-0.263,0.69-0.41,1.063-0.451c0.117-0.013,0.266-0.105,0.301-0.238c0.056-0.204,0.174-0.371,0.363-0.51
		c0.141-0.104,0.288-0.197,0.436-0.291l0.068,0.098c0.436-0.167,0.832-0.256,1.207-0.27l0.113,0.151l0.197,0.004
		c0.956,0.013,1.905,0.149,2.818,0.405c1.269,0.354,2.177,1.178,2.775,2.52c0.549,1.227,0.627,2.508,0.239,3.922l-0.042,0.148
		l-0.034,0.188l0.182,0.06l0.178,0.01c0.063,0,0.151,0.015,0.202,0.083c0.047,0.062,0.055,0.155,0.021,0.266l-0.104,0.344
		c-0.078,0.248-0.156,0.494-0.215,0.793c-0.089,0.453-0.172,0.881-0.344,1.287c-0.055,0.127-0.117,0.254-0.194,0.369
		c-0.062,0.094-0.091,0.112-0.088,0.115c-0.008-0.002-0.045-0.011-0.152-0.082l-0.25-0.173l-0.09,0.443
		c-0.123,0.589-0.333,1.2-0.639,1.875c-0.243,0.534-0.174,1.103-0.044,1.614l0.093,0.127l0.058,0.027
		c0.163,0.08,0.319,0.194,0.497,0.367c0.088,0.082,0.176,0.168,0.253,0.266c0.021,0.025,0.042,0.049,0.074,0.084l-0.006,0.094
		l0.439,0.093c-0.136,0.147-0.272,0.284-0.414,0.41c-0.28,0.253-0.599,0.487-0.944,0.698c-0.428,0.263-0.889,0.474-1.367,0.627
		c-0.652,0.213-1.308,0.318-1.946,0.318c-0.75,0-1.494-0.135-2.21-0.398c-0.468-0.176-0.916-0.403-1.33-0.68
		c-0.213-0.146-0.418-0.301-0.614-0.469c-0.175-0.15-0.347-0.318-0.52-0.509L8.841,16.703z M25.098,25.048
		c-0.19,0.229-0.483,0.354-0.824,0.354H20.05v-2.429c0-0.295-0.241-0.536-0.538-0.536c-0.296,0-0.537,0.241-0.537,0.536v2.429H7.499
		v-2.429c0-0.295-0.241-0.536-0.537-0.536s-0.538,0.241-0.538,0.536v2.429H2.2c-0.341,0-0.634-0.125-0.825-0.354
		c-0.191-0.229-0.264-0.539-0.204-0.875l0.814-4.576c0.142-0.801,0.965-1.649,1.762-1.817l3.615-0.763
		c0.237,0.304,0.509,0.593,0.828,0.886c0.348,0.32,0.717,0.604,1.097,0.844c1.2,0.75,2.566,1.146,3.95,1.146
		c1.276,0,2.552-0.345,3.692-0.998c0.543-0.312,1.048-0.689,1.498-1.129c0.258-0.251,0.479-0.496,0.68-0.751l3.62,0.765
		c0.796,0.168,1.618,1.019,1.761,1.817l0.813,4.576C25.362,24.509,25.29,24.818,25.098,25.048z"/>
</g>
<g>
</g>
<g>
</g>
<g>
</g>
<g>
</g>
<g>
</g>
<g>
</g>
<g>
</g>
<g>
</g>
<g>
</g>
<g>
</g>
<g>
</g>
<g>
</g>
<g>
</g>
<g>
</g>
<g>
</g>
</svg>
